<?xml version="1.0" encoding="UTF-8"?>
<svg width="210" height="210" fill="none" version="1.1" xml:space="preserve" xmlns="http://www.w3.org/2000/svg"><g><path d="m104.88 0c-6.4215 0-12.843 2.4525-17.748 7.3574l-26.518 26.518-8.8731-8.873c-9.8098-9.8097-25.652-9.8444-35.496 0-9.8445 9.8444-9.8098 25.684 0 35.494l8.8731 8.875-17.746 17.746c-9.8445 9.8444-9.8098 25.686 0 35.496l17.746 17.748-8.8731 8.873c-9.8445 9.8444-9.8098 25.686 0 35.496 9.8445 9.8444 25.652 9.8444 35.496 0l8.8731-8.873 26.76 26.76c9.8445 9.8444 25.652 9.8444 35.496 0l17.748-17.748-9.0137-9.0117c-9.8098-9.8097-9.8445-25.652 0-35.496 9.8445-9.8444 25.687-9.8098 35.496 0l9.0118 9.0117 26.518-26.518c9.8098-9.8097 9.8445-25.65 0-35.494l-26.76-26.762-8.7696 8.7715c-9.8445 9.8444-25.652 9.8444-35.496 0-9.8098-9.8097-9.8445-25.652 0-35.496l8.7716-8.7695-17.748-17.748c-4.9049-4.9049-11.327-7.3574-17.748-7.3574zm-64 123.26 1.4063 1.4062-7.2501 7.25c-0.55935 0.55935-0.91722 1.1223-1.0742 1.6914-0.15701 0.56916-0.14057 1.1272 0.05078 1.6719 0.19626 0.54953 0.5406 1.0699 1.0313 1.5605 0.49556 0.49557 1.0159 0.83794 1.5606 1.0293 0.54954 0.19626 1.1086 0.21558 1.6777 0.0586 0.56916-0.15701 1.1321-0.51487 1.6914-1.0742l7.2501-7.25 1.4141 1.4141-7.2501 7.25c-0.80468 0.80468-1.6539 1.2941-2.5469 1.4707-0.893 0.17663-1.7712 0.10313-2.6348-0.2207-0.85374-0.32383-1.6265-0.83162-2.3184-1.5234-0.72618-0.72617-1.2504-1.5154-1.5742-2.3691-0.31402-0.85374-0.3769-1.7194-0.18555-2.5976 0.19627-0.87336 0.69728-1.7129 1.502-2.5176zm10.135 10.137 1.4219 1.4199-10.717 10.715-1.4199-1.4199zm4.4258 3.2461 1.3672 1.3692-6.8321 6.832 1.5996-0.14257 5.0938-0.14649 1.6621 1.6621-6.4219 0.21875-1.1797 8.1054-1.6055-1.6035 0.93165-6.457-1.7481 0.0312-2.8047 2.8047-1.3672-1.3691zm7.2208 8.5605c0.28949-0.0147 0.56708 0.11004 0.83204 0.375 0.26005 0.26005 0.38191 0.53473 0.36719 0.82422-0.0098 0.29439-0.12491 0.55263-0.3457 0.77343-0.21098 0.21099-0.46342 0.32027-0.75782 0.33009-0.28458 0.01-0.55832-0.11497-0.81836-0.37501-0.26496-0.26495-0.39263-0.53963-0.38281-0.82421 0.01963-0.28458 0.13668-0.53316 0.34766-0.74414 0.2208-0.2208 0.47324-0.33975 0.75782-0.35938zm-2.7676 2.5762 1.3692 1.3691-7.9629 7.9629-1.3692-1.3692zm6.0215 2.1504 1.3613 1.3613-1.9356 1.9356 1.4863 1.4863-1.0449 1.0449-1.4863-1.4863-4.9454 4.9453c-0.26986 0.26985-0.43236 0.51553-0.48633 0.73633-0.05397 0.2208-0.03753 0.41906 0.05078 0.5957s0.20923 0.34204 0.36133 0.49415c0.11285 0.11285 0.24054 0.21921 0.38282 0.32225 0.15208 0.10306 0.26716 0.17949 0.3457 0.22852l-1.1035 1.1191c-0.14231-0.0736-0.31738-0.18482-0.52344-0.33203-0.2061-0.13737-0.43241-0.32694-0.67774-0.57227-0.33365-0.33365-0.57351-0.70698-0.72071-1.1191-0.1472-0.41215-0.15008-0.85609-0.0078-1.332 0.15211-0.47593 0.49354-0.97985 1.0234-1.5098l4.9395-4.9375-1.457-1.457 1.0449-1.0449 1.457 1.457zm9.2891 9.039c0.58879 0.0589 1.1817 0.2378 1.7754 0.5371 0.5937 0.29931 1.1653 0.72392 1.7149 1.2734 0.80468 0.80468 1.3318 1.6413 1.582 2.5098 0.26005 0.86846 0.28906 1.6983 0.08789 2.4883-0.19627 0.78505-0.57347 1.4563-1.1328 2.0156l-1.4141-1.4121c0.40234-0.40235 0.67317-0.84535 0.81055-1.3262 0.14228-0.48575 0.1268-0.99061-0.04492-1.5156-0.16683-0.5299-0.51792-1.0628-1.0527-1.5976-0.50538-0.50538-0.99768-0.84484-1.4785-1.0215-0.48085-0.17664-0.93351-0.21728-1.3555-0.11915-0.41705 0.10305-0.79136 0.32261-1.125 0.65625-0.2257 0.2257-0.38529 0.47814-0.47852 0.75781-0.08341 0.27967-0.10275 0.59885-0.05859 0.95703 0.04907 0.36308 0.16416 0.7664 0.34571 1.2129 0.18645 0.4514 0.43889 0.96114 0.75782 1.5254 0.43669 0.78014 0.77135 1.4959 1.002 2.1484 0.23061 0.65256 0.35538 1.2532 0.375 1.8027 0.02944 0.54953-0.05374 1.0602-0.25 1.5312-0.18645 0.47104-0.4892 0.91498-0.90626 1.332-0.43668 0.43668-0.91932 0.74329-1.4492 0.91993-0.52992 0.17663-1.0851 0.22498-1.6641 0.14647-0.57897-0.0785-1.167-0.27966-1.7656-0.60351-0.58879-0.32383-1.1662-0.76777-1.7305-1.332-0.49557-0.49556-0.91436-1.0517-1.2578-1.6699-0.33855-0.61332-0.56779-1.2546-0.68555-1.9219-0.11285-0.6624-0.08479-1.3114 0.08203-1.9492 0.17664-0.63785 0.5316-1.2249 1.0664-1.7598l1.4141 1.4141c-0.368 0.36799-0.61367 0.75487-0.73633 1.1621-0.11775 0.40233-0.14001 0.81145-0.06641 1.2285 0.0785 0.42195 0.23228 0.83304 0.4629 1.2305 0.24042 0.39743 0.5335 0.76787 0.87696 1.1113 0.49556 0.49556 0.984 0.84471 1.4649 1.0508 0.48084 0.20608 0.93736 0.26992 1.3692 0.19142 0.43668-0.0736 0.82937-0.28446 1.1777-0.63282 0.25023-0.25023 0.43012-0.50943 0.54297-0.77928 0.12266-0.26987 0.16716-0.57938 0.13281-0.92775-0.02944-0.34345-0.13872-0.75258-0.33008-1.2285-0.18645-0.47103-0.46018-1.033-0.81837-1.6856-0.3729-0.68691-0.6766-1.3388-0.91212-1.957-0.23061-0.62312-0.37181-1.2131-0.42578-1.7676-0.05397-0.55445-0.0018-1.0748 0.16016-1.5606 0.16192-0.48574 0.45209-0.93646 0.86915-1.3535 0.41706-0.41706 0.88906-0.71691 1.4141-0.89844 0.525-0.18155 1.0753-0.24247 1.6543-0.18359zm5.5215 11.719c0.66239-0.0736 1.3201 4e-3 1.9727 0.23437 0.65748 0.23552 1.2862 0.65336 1.8848 1.252 0.62314 0.62312 1.039 1.2944 1.25 2.0156 0.21589 0.71636 0.23814 1.4253 0.06641 2.127-0.16192 0.70163-0.5043 1.34-1.0293 1.9141l-1.2969-1.2949c0.30423-0.35324 0.50832-0.74302 0.61133-1.1699 0.10794-0.42195 0.10408-0.84946-0.01367-1.2812-0.10795-0.43177-0.34395-0.82831-0.70704-1.1914-0.41706-0.41707-0.85134-0.68499-1.3027-0.80274-0.44159-0.11777-0.88554-0.12091-1.332-8e-3 -0.43669 0.11285-0.8613 0.30144-1.2734 0.5664-0.40234 0.26496-0.7786 0.57156-1.127 0.91992l-0.3086 0.31054c-0.34837 0.34838-0.65787 0.72557-0.92774 1.1328-0.26986 0.40723-0.46137 0.82893-0.57422 1.2656-0.10795 0.44158-0.10507 0.88554 0.0078 1.332 0.12266 0.4465 0.39639 0.88076 0.81836 1.3027 0.32383 0.32382 0.68846 0.55691 1.0957 0.69921 0.40724 0.14229 0.81346 0.18679 1.2207 0.13282 0.41216-0.0589 0.78164-0.22524 1.1055-0.5l1.2949 1.2949c-0.49554 0.44651-1.0952 0.72506-1.7969 0.8379-0.69183 0.11285-1.3979 0.0587-2.1192-0.16211-0.71636-0.22571-1.3557-0.61935-1.9199-1.1836-0.59861-0.59861-1.0164-1.2273-1.252-1.8848-0.23061-0.65257-0.30798-1.3103-0.23438-1.9726 0.0785-0.65749 0.28064-1.2968 0.60938-1.9199 0.33855-0.62314 0.77574-1.2035 1.3106-1.7383l0.3086-0.30858c0.53482-0.53481 1.1123-0.9691 1.7305-1.3027 0.62805-0.33364 1.2703-0.53868 1.9277-0.61718zm8.0528 8.0078c0.68201-0.054 1.3465 0.0418 1.9942 0.28711 0.65258 0.24042 1.2561 0.63697 1.8106 1.1914 0.55935 0.55934 0.96076 1.1658 1.2012 1.8183 0.25024 0.65258 0.34694 1.32 0.29297 2.002-0.04416 0.68201-0.22985 1.3552-0.5586 2.0176-0.32383 0.65747-0.7736 1.2716-1.3477 1.8457l-0.16797 0.16992c-0.57407 0.57407-1.1902 1.0238-1.8477 1.3476-0.65748 0.32384-1.3307 0.50953-2.0176 0.5586-0.67711 0.0491-1.3416-0.0467-1.9942-0.28712-0.64276-0.24041-1.2434-0.63985-1.8027-1.1992-0.55935-0.55934-0.96172-1.1629-1.207-1.8105-0.24043-0.65257-0.33908-1.32-0.29492-2.002 0.05397-0.68201 0.24257-1.3523 0.56641-2.0098 0.32383-0.65748 0.7736-1.2736 1.3477-1.8476l0.16992-0.16797c0.57407-0.57407 1.1882-1.0238 1.8457-1.3476 0.66239-0.32874 1.3327-0.51733 2.0098-0.56641zm0.79883 1.7402c-0.2257-0.01-0.45444 7e-3 -0.6875 0.0488-0.45631 0.0834-0.90898 0.25363-1.3555 0.51366-0.4416 0.25514-0.85748 0.58014-1.25 0.97266l-0.16992 0.16995c-0.39744 0.39744-0.72629 0.81913-0.98634 1.2656-0.25514 0.44159-0.4244 0.88939-0.50782 1.3457-0.07851 0.46121-0.05335 0.91388 0.07422 1.3555 0.13248 0.43669 0.38783 0.84291 0.76563 1.2207 0.3729 0.3729 0.77526 0.62439 1.207 0.75195 0.4416 0.12757 0.8894 0.14789 1.3457 0.0645 0.45631-0.0834 0.90607-0.25266 1.3477-0.5078 0.4514-0.25514 0.87601-0.58108 1.2734-0.97852l0.16797-0.16797c0.39253-0.39252 0.71461-0.81325 0.96485-1.2598 0.26005-0.44649 0.42931-0.9001 0.50782-1.3613 0.08832-0.46122 0.06897-0.91193-0.05859-1.3535-0.12267-0.43668-0.3722-0.84484-0.75-1.2226-0.3729-0.3729-0.78107-0.62242-1.2227-0.74999-0.21834-0.0613-0.44032-0.0976-0.66602-0.10743zm8.2403 5.2676 1.252 1.252-0.80664 0.9414c0.60207-0.0631 1.1792 0.0102 1.7324 0.22069 0.55935 0.20609 1.0894 0.56009 1.5899 1.0606 0.50048 0.50048 0.84772 1.0411 1.0391 1.625 0.19626 0.57897 0.24752 1.1816 0.15429 1.8047-0.0932 0.62313-0.32341 1.2499-0.6914 1.8828-0.35819 0.63295-0.84277 1.2549-1.4512 1.8633l-0.1543 0.15431c-0.57897 0.57897-1.1854 1.0461-1.8184 1.4043-0.62804 0.35327-1.2548 0.57959-1.8828 0.67772-0.62314 0.10304-1.2267 0.0644-1.8106-0.11719-0.58389-0.18152-1.1236-0.52005-1.6192-1.0156-0.50538-0.50537-0.86906-1.0354-1.0899-1.5898-0.20814-0.52266-0.28558-1.062-0.25391-1.6152l-3.8457 3.8457-1.3692-1.3691zm0.0293 3.3418c-0.25861 0.0136-0.51524 0.066-0.77149 0.13866l-3.7754 3.7754c-0.01555 0.0527-0.03862 0.10307-0.05273 0.15625-0.12266 0.47592-0.12943 0.95276-0.02148 1.4336 0.11286 0.47593 0.3914 0.93826 0.8379 1.3848 0.36799 0.36799 0.76068 0.60786 1.1777 0.7207 0.42688 0.11286 0.86115 0.11961 1.3027 0.0215 0.4465-0.0932 0.88659-0.27217 1.3184-0.53711 0.43668-0.26986 0.85257-0.60257 1.25-0.99999l0.1543-0.15431c0.39743-0.39742 0.72919-0.81235 0.99415-1.2441 0.26986-0.43668 0.44879-0.87676 0.53712-1.3184 0.0981-0.44159 0.0885-0.87295-0.0293-1.2949-0.11284-0.42687-0.35563-0.82633-0.72853-1.1992-0.34346-0.34347-0.70132-0.58333-1.0742-0.72071-0.368-0.13247-0.74134-0.18663-1.1191-0.1621zm8.2735 6.8164c0.68202-0.0245 1.3233 0.0809 1.9219 0.3164 0.5986 0.23551 1.1199 0.57499 1.5664 1.0215 0.56916 0.56915 0.96186 1.1592 1.1778 1.7676 0.22079 0.61332 0.28753 1.2294 0.19922 1.8477-0.0834 0.61331-0.30008 1.2207-0.64844 1.8242-0.34347 0.5986-0.79417 1.177-1.3535 1.7363l-0.61134 0.61133-5.3789-5.3808c-0.33022 0.34761-0.60921 0.71723-0.81836 1.1133-0.22081 0.43668-0.35525 0.88062-0.40431 1.332-0.0441 0.45631 7e-3 0.90024 0.1543 1.332 0.15212 0.43667 0.41422 0.83998 0.78712 1.2129 0.48084 0.48085 0.98767 0.79036 1.5176 0.92774 0.52991 0.13738 1.0831 0.1664 1.6621 0.0879l0.16993 1.4804c-0.43179 0.0883-0.89797 0.11735-1.3984 0.0879-0.50047-0.0295-1.0179-0.1639-1.5527-0.40429-0.52992-0.23551-1.057-0.61562-1.582-1.1406-0.55444-0.55443-0.96552-1.1512-1.2305-1.789-0.25515-0.63785-0.3712-1.2897-0.35157-1.957 0.02453-0.66237 0.18508-1.3162 0.48438-1.959 0.29931-0.64274 0.72972-1.2434 1.2891-1.8027l0.3086-0.3086c0.64766-0.64765 1.3209-1.1293 2.0176-1.4434 0.70164-0.31892 1.3922-0.48913 2.0742-0.51366zm0.71681 1.6797c-0.2073-0.016-0.42179-7e-3 -0.64258 0.0273-0.4416 0.0687-0.89812 0.23504-1.3692 0.50001-0.22704 0.1277-0.45625 0.28308-0.68556 0.46092l3.9824 3.9844 0.10352-0.10352c0.33361-0.37292 0.60249-0.78883 0.8086-1.25 0.21098-0.45631 0.2903-0.92831 0.23633-1.4141-0.054-0.48574-0.3132-0.96161-0.77931-1.4277-0.30911-0.30912-0.66021-0.52674-1.0527-0.65431-0.19381-0.0662-0.39426-0.1071-0.60156-0.12305z" fill="#71c837"/><path d="m43.291 90.651-15.09 0.0061-2.8852 28.668h7.3047l0.87412-8.6728h7.0398l3.8459 8.6728h7.9506l-4.3319-9.767c3.9753-2.169 5.3364-5.2202 5.6645-8.9347 0.41668-4.7118-3.5912-9.9728-10.372-9.9728zm-0.55218 12.734h-8.5109l0.55422-5.4953c3.1725 0.0163 7.2436 0.03871 8.6903 0.03871 1.8674 0 2.9035 1.2786 2.9035 2.6193 0 1.7686-1.4935 2.8373-3.6371 2.8373zm19.039 4.5448h14.585l0.64999-6.4488h-14.541c0.60923-2.5887 1.8613-3.5932 3.6361-3.5932l13.734 2e-3 0.72334-7.2343-14.466-0.0031c-6.6231 0-10.509 4.0201-11.502 13.723-0.94034 9.1894 3.147 14.951 10.537 14.951h12.534l0.74677-7.2985c-4.1628-0.0214-10.956-0.12123-13.053-0.13039-2.497-8e-3 -3.471-0.98618-3.5851-3.9671zm34.287-17.274h-13.817l-2.8944 28.67 15.21-1e-3c14.134 0 16.584-28.669 1.5007-28.669zm3.0299 13.687c-0.50023 5.2671-2.4278 7.7142-4.6885 7.7142h-7.0143l1.4253-14.138h6.9583c2.1313 0 3.6819 2.5979 3.3192 6.4234z" fill="#fff"/><path d="m124.65 90.655h-5.6329c-6.3328 0-10.119 4.1862-10.866 10.765l-1.8063 17.928h7.3047l0.91386-9.0742h12.171l-0.93626 9.0742h7.3067l1.7727-17.187c0.70093-6.9318-3.7573-11.486-10.228-11.507zm2.9983 10.774-0.24654 2.3951h-12.188l0.16911-1.6749c0.32499-3.203 1.3845-4.1943 3.6534-4.2707h5.6064c2.4186 0.0092 3.2764 1.2704 3.0054 3.5504z" fill="#2a3542"/><path d="m142.23 90.723 5.3201 8.7727 5.6237-8.7727h9.0968l-10.3 15.536 8.9327 13.041h-8.5548l-4.3248-6.8034-4.5275 6.8034h-9.4187l9.3229-13.669-9.3107-14.909z" fill="#2a3542"/><path d="m179.12 94.566-4.8573 2.9683 5.4985 3.226v8.4604l-7.4132 4.2302-7.343-4.2214v-6.5586l-4.9187-2.5328v12.006l12.077 7.1807 12.516-7.1807v-14.344zm-2.2652-1.1314-4.7423-2.7778-4.9462 3.0914 4.8131 2.6794z" fill="#39f"/></g></svg>
